<svg width="48" height="48" viewBox="0 0 48 48" fill="none" xmlns="http://www.w3.org/2000/svg">
<path d="M24 48C23.28 48 22.5904 47.856 21.9312 47.568C21.272 47.28 20.6816 46.8462 20.16 46.2667L4.08 28.3333C3.52 27.7111 3.0096 27.0329 2.5488 26.2987C2.088 25.5644 1.6992 24.7982 1.3824 24H23.7024C24.3824 24 24.9528 24.256 25.4136 24.768C25.8744 25.28 26.104 25.9129 26.1024 26.6667C26.1024 27.4222 25.872 28.056 25.4112 28.568C24.9504 29.08 24.3808 29.3351 23.7024 29.3333C23.1424 29.3333 22.6424 29.1671 22.2024 28.8347C21.7624 28.5022 21.4824 28.024 21.3624 27.4L16.7424 28.8C17.1824 30.5333 18.0424 31.9449 19.3224 33.0347C20.6024 34.1244 22.0624 34.6684 23.7024 34.6667C25.7024 34.6667 27.4024 33.8889 28.8024 32.3333C30.2024 30.7778 30.9016 28.8889 30.9 26.6667C30.9 26.1778 30.86 25.7218 30.78 25.2987C30.7 24.8755 30.6 24.4427 30.48 24H33.3C35.3 24 37 23.2222 38.4 21.6667C39.8 20.1111 40.5 18.2222 40.5 16C40.5 13.7778 39.8 11.8889 38.4 10.3333C37 8.77777 35.3 8 33.3 8C31.66 8 30.2 8.54489 28.92 9.63466C27.64 10.7244 26.78 12.1351 26.34 13.8667L30.96 15.2667C31.08 14.6444 31.36 14.1671 31.8 13.8347C32.24 13.5022 32.74 13.3351 33.3 13.3333C33.98 13.3333 34.5504 13.5893 35.0112 14.1013C35.472 14.6133 35.7016 15.2462 35.7 16C35.7 16.7556 35.4696 17.3893 35.0088 17.9013C34.548 18.4133 33.9784 18.6684 33.3 18.6667H0.12C0.0799999 18.3111 0.0504 17.9884 0.0312 17.6987C0.012 17.4089 0.0016 17.088 0 16.736C0 12.1564 1.34 8.22222 4.02 4.93333C6.7 1.64444 10.04 0 14.04 0C15.96 0 17.7704 0.422222 19.4712 1.26667C21.172 2.11111 22.6816 3.28889 24 4.8C25.28 3.28889 26.7704 2.11111 28.4712 1.26667C30.172 0.422222 31.9816 0 33.9 0C37.9 0 41.2504 1.64444 43.9512 4.93333C46.652 8.22222 48.0016 12.1333 48 16.6667C48 18.8444 47.66 20.9333 46.98 22.9333C46.3 24.9333 45.28 26.7111 43.92 28.2667L27.78 46.2667C27.26 46.8444 26.68 47.2782 26.04 47.568C25.4 47.8578 24.72 48.0018 24 48Z" fill="#85B6FF"/>
</svg>
