<svg width="49" height="49" viewBox="0 0 49 49" fill="none" xmlns="http://www.w3.org/2000/svg">
<rect width="49" height="49" fill="#C3BBBB"/>
<g id="iPhone 14 &#38; 15 Pro Max - 12">
<rect width="430" height="932" transform="translate(-35 -828)" fill="url(#paint0_linear_0_1)"/>
<g id="Footer">
<path id="corazon" d="M24.4759 48.352C23.7416 48.352 23.0384 48.208 22.3661 47.92C21.6938 47.632 21.0917 47.1982 20.5598 46.6186L4.16091 28.6853C3.5898 28.0631 3.06928 27.3849 2.59934 26.6506C2.12941 25.9164 1.7329 25.1502 1.40981 24.352H24.1724C24.8659 24.352 25.4476 24.608 25.9176 25.12C26.3875 25.632 26.6216 26.2649 26.62 27.0186C26.62 27.7742 26.385 28.408 25.9151 28.92C25.4452 29.432 24.8643 29.6871 24.1724 29.6853C23.6013 29.6853 23.0914 29.5191 22.6427 29.1866C22.194 28.8542 21.9084 28.376 21.786 27.752L17.0744 29.152C17.5231 30.8853 18.4002 32.2969 19.7056 33.3866C21.0109 34.4764 22.4999 35.0204 24.1724 35.0186C26.2121 35.0186 27.9458 34.2409 29.3736 32.6853C30.8013 31.1298 31.5144 29.2409 31.5128 27.0186C31.5128 26.5298 31.472 26.0738 31.3904 25.6506C31.3088 25.2275 31.2068 24.7946 31.0844 24.352H33.9603C36 24.352 37.7337 23.5742 39.1615 22.0186C40.5892 20.4631 41.3031 18.5742 41.3031 16.352C41.3031 14.1298 40.5892 12.2409 39.1615 10.6853C37.7337 9.12976 36 8.35199 33.9603 8.35199C32.2878 8.35199 30.7989 8.89688 29.4935 9.98665C28.1881 11.0764 27.3111 12.4871 26.8623 14.2187L31.5739 15.6187C31.6963 14.9964 31.9819 14.5191 32.4306 14.1867C32.8793 13.8542 33.3892 13.6871 33.9603 13.6853C34.6538 13.6853 35.2355 13.9413 35.7055 14.4533C36.1754 14.9653 36.4096 15.5982 36.4079 16.352C36.4079 17.1075 36.173 17.7413 35.703 18.2533C35.2331 18.7653 34.6522 19.0204 33.9603 19.0187H0.122379C0.0815863 18.6631 0.0513995 18.3404 0.0318187 18.0507C0.012238 17.7609 0.00163173 17.44 0 17.088C0 12.5084 1.36657 8.57421 4.09972 5.28532C6.83286 1.99643 10.2391 0.35199 14.3184 0.35199C16.2765 0.35199 18.1228 0.774212 19.8573 1.61866C21.5918 2.4631 23.1314 3.64088 24.4759 5.15199C25.7813 3.64088 27.3013 2.4631 29.0358 1.61866C30.7703 0.774212 32.6158 0.35199 34.5722 0.35199C38.6516 0.35199 42.0684 1.99643 44.8228 5.28532C47.5771 8.57421 48.9535 12.4853 48.9518 17.0187C48.9518 19.1964 48.6051 21.2853 47.9116 23.2853C47.2181 25.2853 46.1779 27.0631 44.7909 28.6186L28.3309 46.6186C27.8006 47.1964 27.2091 47.6302 26.5564 47.92C25.9037 48.2098 25.2102 48.3538 24.4759 48.352Z" fill="#74C7F4"/>
</g>
</g>
<defs>
<linearGradient id="paint0_linear_0_1" x1="215" y1="0" x2="215" y2="932" gradientUnits="userSpaceOnUse">
<stop stop-color="#4374A6"/>
<stop offset="1" stop-color="#2F327B"/>
</linearGradient>
</defs>
</svg>
